<?xml version="1.0"?><svg version="1.2" baseProfile="tiny-ps" viewBox="0 0 200 200" xmlns="http://www.w3.org/2000/svg" xmlns:xlink="http://www.w3.org/1999/xlink"><title>Coachini</title><g><g fill="#fffffb" transform="matrix(.1 0 0 -.1 0 200)"><path d="M0 1000V0h2000v2000H0V1000z"/></g><g fill="#f8e590" transform="matrix(.1 0 0 -.1 0 200)"><path d="M84 1981c-18-11-43-35-58-54l-26-34V113l23-34c12-18 38-44 56-56l34-23 893 2 893 3 27 21c15 11 37 33 48 48l21 27 3 896 2 896-26 34c-14 19-40 43-58 54l-31 19H115l-31-19zm1189-316c115-24 222-83 254-139l12-21 1-43v-43l-11-22c-15-28-59-76-82-89l-18-9-52 40-52 39-60 24-60 23H985l-50-25-50-24-51-48-52-49-27-60-27-61-9-69-10-69 10-69 9-69 27-61 28-61 41-38c23-21 67-51 98-66l56-27 68-10 68-10 61 7c80 8 160 30 214 60 24 13 47 21 52 19 4-3 33-49 64-101l56-95-10-13c-19-23-136-75-221-98l-85-23H975l-65 18c-36 9-99 34-140 54l-75 37-80 80-80 81-27 55c-15 30-37 87-50 125l-22 70v125l-1 125 14 55c7 30 30 91 51 135l38 80 48 55c83 97 193 162 334 199l75 19 105 1 105 1 68-15z"/></g><g fill="#ecba07" transform="matrix(.1 0 0 -.1 0 200)"><path d="M140 1993c-8-3-30-12-49-21l-34-16-28-45-29-45V134l29-46 29-45 44-21 44-22 875 3 876 2 37 29 38 29 14 33 14 33v1737l-29 45-28 45-39 20-39 19-855 2c-470 1-862-1-870-4zm1185-331c69-22 117-45 162-79l31-24 16-34c20-41 20-85 2-129-15-36-70-93-100-102l-18-6-32 30c-34 34-109 74-172 92l-41 12-89-4-89-3-60-28-60-28-38-37-39-37-28-55c-33-66-50-140-50-218v-57l14-50c19-72 49-125 97-174 49-48 102-78 174-97l50-14h65c36 1 94 7 128 14l64 14 64 32c35 18 66 31 68 29s32-50 66-107l62-103-13-15c-7-9-44-31-82-50l-69-35-76-19c-43-10-115-21-162-25l-85-7-80 11c-106 13-196 42-274 88l-64 38-62 61-62 62-40 78-41 79-16 65c-8 36-18 97-22 136l-7 72 12 83 13 83 23 63c32 88 80 163 146 230l57 57 64 39 63 38 67 20c36 11 88 24 115 29l48 9 120-4 120-4 60-19z"/></g><g fill="#4f77ac" transform="matrix(.1 0 0 -.1 0 200)"><path d="M1983 949c-25-155-87-311-182-454l-46-70-85-86-85-85-90-60-91-60-88-37c-93-39-225-77-273-78h-28l24-10 24-10 417 3 417 3 37 29 38 29 14 33 14 34-2 447-3 448-12-76z"/></g><g fill="#757648" transform="matrix(.1 0 0 -.1 0 200)"><path d="M1983 949c-25-155-87-311-182-454l-46-70-85-86-85-85-90-60-91-60-88-37c-83-35-204-70-271-80-16-2 165-5 403-6l433-1 28 15c16 8 40 28 54 45l26 30 6 43c3 23 5 231 3 462l-3 420-12-76z"/></g><g fill="#29558f" transform="matrix(.1 0 0 -.1 0 200)"><path d="M1986 900c-5-24-17-71-28-105-18-56-26-76-66-165-9-19-36-68-61-109l-44-74-94-97-93-98-73-50c-117-80-235-135-370-171l-72-20h398l398-1 28 15c16 8 40 28 54 45l26 30 6 43c3 23 5 213 3 422l-3 380-9-45z"/></g></g></svg>