<?xml version="1.0" encoding="utf-8"?>
<!-- Generator: Adobe Illustrator 28.3.0, SVG Export Plug-In . SVG Version: 6.00 Build 0)  -->
<svg version="1.2" baseProfile="tiny" id="Layer_1" xmlns="http://www.w3.org/2000/svg" xmlns:xlink="http://www.w3.org/1999/xlink"
	 x="0px" y="0px" viewBox="0 0 1366 768" overflow="visible" xml:space="preserve">
<g>
	<path fill="#EBB802" d="M766.47,483.38h-165.9c-8.86,0-16.03-7.18-16.03-16.03V301.05c0-8.86,7.18-16.03,16.03-16.03h165.9
		c8.86,0,16.03,7.18,16.03,16.03v166.29C782.5,476.2,775.32,483.38,766.47,483.38z"/>
	<path fill="#2B568F" d="M689.91,483.38c1.22-3.93,5.18-2.93,7.67-3.56c16.96-4.28,31.94-12.12,45.32-23.3
		c9.92-8.29,18.35-18.02,24.68-29.07c6-10.47,10.32-21.94,12.72-33.95c0.64-3.19,1.38-6.36,2.07-9.54c0,28.83,0,57.67,0,86.5
		c-1.94,6.68-6.61,10.62-12.93,12.93C742.94,483.38,716.42,483.38,689.91,483.38z"/>
	<path fill="#FDFCF8" d="M782.38,295.47c-1.17,0.17-1.66-0.33-2.07-1.49c-1.68-4.78-6.49-6.37-9.86-9.45c0.33,0,0.66,0,0.99,0
		c3.65,0,8.71-1.42,10.54,0.4S782.38,291.82,782.38,295.47z"/>
	<path fill="#FDFCF8" d="M583.53,472.44c3.22,4.08,7.1,7.48,10.94,10.94c-3.65,0-8.71,1.42-10.54-0.4
		C582.11,481.15,583.53,476.08,583.53,472.44z"/>
	<path fill="#FDFCF8" d="M594.47,284.53c-3.65,3.65-7.29,7.29-10.94,10.94c0-3.65-1.42-8.71,0.4-10.54
		C585.75,283.11,590.82,284.53,594.47,284.53z"/>
	<path fill="#FDFCF8" d="M769.45,483.38c6.31-2.3,10.99-6.25,12.93-12.93c0,4.31,1.68,10.3-0.47,12.45
		C779.75,485.06,773.76,483.38,769.45,483.38z"/>
	<path fill="#FDFCF8" d="M693.88,447.78c-19.44,0.73-35.96-5.05-49.47-18.29c-14.87-14.59-19.81-32.94-18.44-53.17
		c1.01-14.96,5.93-28.63,16.29-39.77c14.1-15.16,32-21.01,52.35-20.72c11.87,0.17,23.56,1.46,33.55,8.27
		c11.77,8.03,12.56,18.24,2,27.96c-2.92,2.69-5.38,3.09-8.73-0.08c-15.03-14.21-45.64-14.49-58.8,4.07
		c-12.43,17.52-11.49,52.08,14.7,62.65c9.38,3.79,19.16,4.08,29.07,1.98c6.45-1.37,12.68-3.11,18.2-6.87
		c1.54-1.05,2.85-0.36,3.73,1.12c3.35,5.61,6.69,11.23,10,16.87c1.51,2.58-0.29,4.01-2.11,5.19c-6.13,3.96-12.88,6.56-19.89,8.4
		C708.79,447.35,701.08,448.2,693.88,447.78z"/>
</g>
</svg>
