<?xml version="1.0" encoding="utf-8"?>
<!-- Generator: Adobe Illustrator 28.3.0, SVG Export Plug-In . SVG Version: 6.00 Build 0)  -->
<svg version="1.2" baseProfile="tiny" id="Layer_1" xmlns="http://www.w3.org/2000/svg" xmlns:xlink="http://www.w3.org/1999/xlink"
	 x="0px" y="0px" viewBox="0 0 200 200" overflow="visible" xml:space="preserve">
<g>
	<path fill="#EBB802" d="M183.47,199.38H17.56c-8.86,0-16.03-7.18-16.03-16.03V17.05c0-8.86,7.18-16.03,16.03-16.03h165.9
		c8.86,0,16.03,7.18,16.03,16.03v166.29C199.5,192.2,192.32,199.38,183.47,199.38z"/>
	<path fill="#2B568F" d="M106.91,199.38c1.22-3.93,5.18-2.93,7.67-3.56c16.96-4.28,31.94-12.12,45.32-23.3
		c9.92-8.29,18.35-18.02,24.68-29.07c6-10.47,10.32-21.94,12.72-33.95c0.64-3.19,1.38-6.36,2.07-9.54c0,28.83,0,57.67,0,86.5
		c-1.94,6.68-6.61,10.62-12.93,12.93C159.94,199.38,133.42,199.38,106.91,199.38z"/>
	<path fill="#FDFCF8" d="M199.38,11.47c-1.17,0.17-1.66-0.33-2.07-1.49c-1.68-4.78-6.49-6.37-9.86-9.45c0.33,0,0.66,0,0.99,0
		c3.65,0,8.71-1.42,10.54,0.4C200.8,2.75,199.38,7.82,199.38,11.47z"/>
	<path fill="#FDFCF8" d="M0.53,188.44c3.22,4.08,7.1,7.48,10.94,10.94c-3.65,0-8.71,1.42-10.54-0.4
		C-0.89,197.15,0.53,192.08,0.53,188.44z"/>
	<path fill="#FDFCF8" d="M11.47,0.53C7.82,4.17,4.17,7.82,0.53,11.47c0-3.65-1.42-8.71,0.4-10.54S7.82,0.53,11.47,0.53z"/>
	<path fill="#FDFCF8" d="M186.45,199.38c6.31-2.3,10.99-6.25,12.93-12.93c0,4.31,1.68,10.3-0.47,12.45S190.76,199.38,186.45,199.38z
		"/>
	<path fill="#FDFCF8" d="M110.88,163.78c-19.44,0.73-35.96-5.05-49.47-18.29c-14.87-14.59-19.81-32.94-18.44-53.17
		c1.01-14.96,5.93-28.63,16.29-39.77c14.1-15.16,32-21.01,52.35-20.72c11.87,0.17,23.56,1.46,33.55,8.27
		c11.77,8.03,12.56,18.24,2,27.96c-2.92,2.69-5.38,3.09-8.73-0.08c-15.03-14.21-45.64-14.49-58.8,4.07
		c-12.43,17.52-11.49,52.08,14.7,62.65c9.38,3.79,19.16,4.08,29.07,1.98c6.45-1.37,12.68-3.11,18.2-6.87
		c1.54-1.05,2.85-0.36,3.73,1.12c3.35,5.61,6.69,11.23,10,16.87c1.51,2.58-0.29,4.01-2.11,5.19c-6.13,3.96-12.88,6.56-19.89,8.4
		C125.79,163.35,118.08,164.2,110.88,163.78z"/>
</g>
</svg>
